<svg xmlns="http://www.w3.org/2000/svg"  viewBox="0 0 80 80" width="80px" height="80px"><path d="M 35 7 C 33.355469 7 32 8.355469 32 10 L 32 12 L 14 12 C 12.355469 12 11 13.355469 11 15 L 11 16 L 11.417969 16 C 11.859375 17.105469 12.742188 18 14 18 L 15 18 L 15 66 C 15 68.75 17.25 71 20 71 L 60 71 C 62.75 71 65 68.75 65 66 L 65 18 L 66 18 C 67.257813 18 68.140625 17.105469 68.582031 16 L 69 16 L 69 15 C 69 13.355469 67.644531 12 66 12 L 48 12 L 48 10 C 48 8.355469 46.644531 7 45 7 Z M 35 9 L 45 9 C 45.566406 9 46 9.433594 46 10 L 46 12 L 34 12 L 34 10 C 34 9.433594 34.433594 9 35 9 Z M 14 14 L 66 14 C 66.566406 14 67 14.433594 67 15 C 67 15.566406 66.566406 16 66 16 L 14 16 C 13.433594 16 13 15.566406 13 15 C 13 14.433594 13.433594 14 14 14 Z M 17 18 L 63 18 L 63 66 C 63 67.667969 61.667969 69 60 69 L 20 69 C 18.332031 69 17 67.667969 17 66 Z M 22 22 C 21.449219 22 21 22.449219 21 23 C 21 23.550781 21.449219 24 22 24 C 22.550781 24 23 23.550781 23 23 C 23 22.449219 22.550781 22 22 22 Z M 31 22 C 30.449219 22 30 22.449219 30 23 C 30 23.550781 30.449219 24 31 24 C 31.550781 24 32 23.550781 32 23 C 32 22.449219 31.550781 22 31 22 Z M 49 22 C 48.449219 22 48 22.449219 48 23 C 48 23.550781 48.449219 24 49 24 C 49.550781 24 50 23.550781 50 23 C 50 22.449219 49.550781 22 49 22 Z M 58 22 C 57.449219 22 57 22.449219 57 23 C 57 23.550781 57.449219 24 58 24 C 58.550781 24 59 23.550781 59 23 C 59 22.449219 58.550781 22 58 22 Z M 22 26 C 21.449219 26 21 26.449219 21 27 C 21 27.550781 21.449219 28 22 28 C 22.550781 28 23 27.550781 23 27 C 23 26.449219 22.550781 26 22 26 Z M 31 26 C 30.449219 26 30 26.449219 30 27 C 30 27.550781 30.449219 28 31 28 C 31.550781 28 32 27.550781 32 27 C 32 26.449219 31.550781 26 31 26 Z M 49 26 C 48.449219 26 48 26.449219 48 27 C 48 27.550781 48.449219 28 49 28 C 49.550781 28 50 27.550781 50 27 C 50 26.449219 49.550781 26 49 26 Z M 58 26 C 57.449219 26 57 26.449219 57 27 C 57 27.550781 57.449219 28 58 28 C 58.550781 28 59 27.550781 59 27 C 59 26.449219 58.550781 26 58 26 Z M 22 30 C 21.449219 30 21 30.449219 21 31 C 21 31.550781 21.449219 32 22 32 C 22.550781 32 23 31.550781 23 31 C 23 30.449219 22.550781 30 22 30 Z M 31 30 C 30.449219 30 30 30.449219 30 31 C 30 31.550781 30.449219 32 31 32 C 31.550781 32 32 31.550781 32 31 C 32 30.449219 31.550781 30 31 30 Z M 49 30 C 48.449219 30 48 30.449219 48 31 C 48 31.550781 48.449219 32 49 32 C 49.550781 32 50 31.550781 50 31 C 50 30.449219 49.550781 30 49 30 Z M 58 30 C 57.449219 30 57 30.449219 57 31 C 57 31.550781 57.449219 32 58 32 C 58.550781 32 59 31.550781 59 31 C 59 30.449219 58.550781 30 58 30 Z M 22 34 C 21.449219 34 21 34.449219 21 35 C 21 35.550781 21.449219 36 22 36 C 22.550781 36 23 35.550781 23 35 C 23 34.449219 22.550781 34 22 34 Z M 31 34 C 30.449219 34 30 34.449219 30 35 C 30 35.550781 30.449219 36 31 36 C 31.550781 36 32 35.550781 32 35 C 32 34.449219 31.550781 34 31 34 Z M 49 34 C 48.449219 34 48 34.449219 48 35 C 48 35.550781 48.449219 36 49 36 C 49.550781 36 50 35.550781 50 35 C 50 34.449219 49.550781 34 49 34 Z M 58 34 C 57.449219 34 57 34.449219 57 35 C 57 35.550781 57.449219 36 58 36 C 58.550781 36 59 35.550781 59 35 C 59 34.449219 58.550781 34 58 34 Z M 22 38 C 21.449219 38 21 38.449219 21 39 C 21 39.550781 21.449219 40 22 40 C 22.550781 40 23 39.550781 23 39 C 23 38.449219 22.550781 38 22 38 Z M 31 38 C 30.449219 38 30 38.449219 30 39 C 30 39.550781 30.449219 40 31 40 C 31.550781 40 32 39.550781 32 39 C 32 38.449219 31.550781 38 31 38 Z M 49 38 C 48.449219 38 48 38.449219 48 39 C 48 39.550781 48.449219 40 49 40 C 49.550781 40 50 39.550781 50 39 C 50 38.449219 49.550781 38 49 38 Z M 58 38 C 57.449219 38 57 38.449219 57 39 C 57 39.550781 57.449219 40 58 40 C 58.550781 40 59 39.550781 59 39 C 59 38.449219 58.550781 38 58 38 Z M 22 42 C 21.449219 42 21 42.449219 21 43 C 21 43.550781 21.449219 44 22 44 C 22.550781 44 23 43.550781 23 43 C 23 42.449219 22.550781 42 22 42 Z M 31 42 C 30.449219 42 30 42.449219 30 43 C 30 43.550781 30.449219 44 31 44 C 31.550781 44 32 43.550781 32 43 C 32 42.449219 31.550781 42 31 42 Z M 49 42 C 48.449219 42 48 42.449219 48 43 C 48 43.550781 48.449219 44 49 44 C 49.550781 44 50 43.550781 50 43 C 50 42.449219 49.550781 42 49 42 Z M 58 42 C 57.449219 42 57 42.449219 57 43 C 57 43.550781 57.449219 44 58 44 C 58.550781 44 59 43.550781 59 43 C 59 42.449219 58.550781 42 58 42 Z M 22 46 C 21.449219 46 21 46.449219 21 47 C 21 47.550781 21.449219 48 22 48 C 22.550781 48 23 47.550781 23 47 C 23 46.449219 22.550781 46 22 46 Z M 31 46 C 30.449219 46 30 46.449219 30 47 C 30 47.550781 30.449219 48 31 48 C 31.550781 48 32 47.550781 32 47 C 32 46.449219 31.550781 46 31 46 Z M 49 46 C 48.449219 46 48 46.449219 48 47 C 48 47.550781 48.449219 48 49 48 C 49.550781 48 50 47.550781 50 47 C 50 46.449219 49.550781 46 49 46 Z M 58 46 C 57.449219 46 57 46.449219 57 47 C 57 47.550781 57.449219 48 58 48 C 58.550781 48 59 47.550781 59 47 C 59 46.449219 58.550781 46 58 46 Z M 22 50 C 21.449219 50 21 50.449219 21 51 C 21 51.550781 21.449219 52 22 52 C 22.550781 52 23 51.550781 23 51 C 23 50.449219 22.550781 50 22 50 Z M 31 50 C 30.449219 50 30 50.449219 30 51 C 30 51.550781 30.449219 52 31 52 C 31.550781 52 32 51.550781 32 51 C 32 50.449219 31.550781 50 31 50 Z M 49 50 C 48.449219 50 48 50.449219 48 51 C 48 51.550781 48.449219 52 49 52 C 49.550781 52 50 51.550781 50 51 C 50 50.449219 49.550781 50 49 50 Z M 58 50 C 57.449219 50 57 50.449219 57 51 C 57 51.550781 57.449219 52 58 52 C 58.550781 52 59 51.550781 59 51 C 59 50.449219 58.550781 50 58 50 Z M 22 54 C 21.449219 54 21 54.449219 21 55 C 21 55.550781 21.449219 56 22 56 C 22.550781 56 23 55.550781 23 55 C 23 54.449219 22.550781 54 22 54 Z M 31 54 C 30.449219 54 30 54.449219 30 55 C 30 55.550781 30.449219 56 31 56 C 31.550781 56 32 55.550781 32 55 C 32 54.449219 31.550781 54 31 54 Z M 49 54 C 48.449219 54 48 54.449219 48 55 C 48 55.550781 48.449219 56 49 56 C 49.550781 56 50 55.550781 50 55 C 50 54.449219 49.550781 54 49 54 Z M 58 54 C 57.449219 54 57 54.449219 57 55 C 57 55.550781 57.449219 56 58 56 C 58.550781 56 59 55.550781 59 55 C 59 54.449219 58.550781 54 58 54 Z M 22 58 C 21.449219 58 21 58.449219 21 59 C 21 59.550781 21.449219 60 22 60 C 22.550781 60 23 59.550781 23 59 C 23 58.449219 22.550781 58 22 58 Z M 31 58 C 30.449219 58 30 58.449219 30 59 C 30 59.550781 30.449219 60 31 60 C 31.550781 60 32 59.550781 32 59 C 32 58.449219 31.550781 58 31 58 Z M 49 58 C 48.449219 58 48 58.449219 48 59 C 48 59.550781 48.449219 60 49 60 C 49.550781 60 50 59.550781 50 59 C 50 58.449219 49.550781 58 49 58 Z M 58 58 C 57.449219 58 57 58.449219 57 59 C 57 59.550781 57.449219 60 58 60 C 58.550781 60 59 59.550781 59 59 C 59 58.449219 58.550781 58 58 58 Z M 22 62 C 21.449219 62 21 62.449219 21 63 C 21 63.550781 21.449219 64 22 64 C 22.550781 64 23 63.550781 23 63 C 23 62.449219 22.550781 62 22 62 Z M 31 62 C 30.449219 62 30 62.449219 30 63 C 30 63.550781 30.449219 64 31 64 C 31.550781 64 32 63.550781 32 63 C 32 62.449219 31.550781 62 31 62 Z M 49 62 C 48.449219 62 48 62.449219 48 63 C 48 63.550781 48.449219 64 49 64 C 49.550781 64 50 63.550781 50 63 C 50 62.449219 49.550781 62 49 62 Z M 58 62 C 57.449219 62 57 62.449219 57 63 C 57 63.550781 57.449219 64 58 64 C 58.550781 64 59 63.550781 59 63 C 59 62.449219 58.550781 62 58 62 Z"/></svg>